<svg xmlns="http://www.w3.org/2000/svg" viewBox="0 0 320 320" role="img" aria-label="Numeracy award graphic"><defs><linearGradient id="gold" x1="0" y1="0" x2="1" y2="1"><stop stop-color="#ffe27a"/><stop offset="1" stop-color="#d99b2b"/></linearGradient><linearGradient id="red" x1="0" y1="0" x2="1" y2="1"><stop stop-color="#ef8174"/><stop offset="1" stop-color="#c94e45"/></linearGradient><linearGradient id="blue" x1="0" y1="0" x2="1" y2="1"><stop stop-color="#82c9e8"/><stop offset="1" stop-color="#438fb8"/></linearGradient><linearGradient id="green" x1="0" y1="0" x2="1" y2="1"><stop stop-color="#91cf73"/><stop offset="1" stop-color="#4c9a4d"/></linearGradient></defs><g fill="#f3c84b"><path d="M55 57l5 12 13 1-10 8 3 13-11-7-11 7 3-13-10-8 13-1z"/><path d="M257 55l4 10 11 1-8 7 2 11-9-6-10 6 3-11-9-7 11-1z"/><circle cx="87" cy="40" r="5"/><circle cx="229" cy="39" r="5"/></g><g stroke="#69431f" stroke-width="7" stroke-linejoin="round"><rect x="46" y="144" width="76" height="82" rx="13" fill="url(#red)"/><rect x="122" y="112" width="76" height="114" rx="13" fill="url(#blue)"/><rect x="198" y="151" width="76" height="75" rx="13" fill="url(#green)"/></g><g fill="#fff8df" stroke="#704322" stroke-width="3" paint-order="stroke" font-family="Arial Rounded MT Bold,Arial,sans-serif" font-weight="700" text-anchor="middle"><text x="84" y="199" font-size="54">1</text><text x="160" y="181" font-size="54">2</text><text x="236" y="202" font-size="54">3</text></g><g transform="translate(0 3)" stroke="#6b4828" stroke-width="6"><path d="M66 245c20-14 42-20 66-17 11 1 20 5 28 10 8-5 17-9 28-10 24-3 46 3 66 17l-12 39c-19-10-38-14-57-11-10 2-18 5-25 10-7-5-15-8-25-10-19-3-38 1-57 11z" fill="#fff3c6" stroke-linejoin="round"/><path d="M160 238v45" fill="none" stroke-linecap="round"/></g><g fill="url(#gold)" stroke="#7b5721" stroke-width="4"><circle cx="74" cy="108" r="15"/><circle cx="104" cy="91" r="12"/><circle cx="220" cy="101" r="12"/><circle cx="250" cy="120" r="15"/></g><g fill="#f0a55e" stroke="#8f552c" stroke-width="4"><circle cx="94" cy="258" r="7"/><circle cx="116" cy="250" r="7"/><circle cx="204" cy="250" r="7"/><circle cx="226" cy="258" r="7"/></g></svg>